<svg width="48" height="48" viewBox="0 0 48 48" fill="none" xmlns="http://www.w3.org/2000/svg">
<circle cx="24" cy="24" r="24" fill="#FF7A00"/>
<path d="M14.8409 32V18.9091H16.8523V32H14.8409ZM15.8636 16.7273C15.4716 16.7273 15.1335 16.5938 14.8494 16.3267C14.571 16.0597 14.4318 15.7386 14.4318 15.3636C14.4318 14.9886 14.571 14.6676 14.8494 14.4006C15.1335 14.1335 15.4716 14 15.8636 14C16.2557 14 16.5909 14.1335 16.8693 14.4006C17.1534 14.6676 17.2955 14.9886 17.2955 15.3636C17.2955 15.7386 17.1534 16.0597 16.8693 16.3267C16.5909 16.5938 16.2557 16.7273 15.8636 16.7273ZM30.3544 18.9091C30.2521 18.0455 29.8374 17.375 29.1101 16.8977C28.3828 16.4205 27.4908 16.1818 26.4339 16.1818C25.6612 16.1818 24.9851 16.3068 24.4055 16.5568C23.8317 16.8068 23.3828 17.1506 23.0589 17.5881C22.7408 18.0256 22.5817 18.5227 22.5817 19.0795C22.5817 19.5455 22.6925 19.946 22.9141 20.2812C23.1413 20.6108 23.4311 20.8864 23.7834 21.108C24.1357 21.3239 24.505 21.5028 24.8913 21.6449C25.2777 21.7812 25.6328 21.892 25.9567 21.9773L27.7294 22.4545C28.1839 22.5739 28.6896 22.7386 29.2464 22.9489C29.8089 23.1591 30.3459 23.446 30.8572 23.8097C31.3743 24.1676 31.8004 24.6278 32.1357 25.1903C32.4709 25.7528 32.6385 26.4432 32.6385 27.2614C32.6385 28.2045 32.3913 29.0568 31.897 29.8182C31.4084 30.5795 30.6925 31.1847 29.7493 31.6335C28.8118 32.0824 27.6726 32.3068 26.3317 32.3068C25.0817 32.3068 23.9993 32.1051 23.0845 31.7017C22.1754 31.2983 21.4595 30.7358 20.9368 30.0142C20.4197 29.2926 20.1271 28.4545 20.0589 27.5H22.2408C22.2976 28.1591 22.5192 28.7045 22.9055 29.1364C23.2976 29.5625 23.7919 29.8807 24.3885 30.0909C24.9908 30.2955 25.6385 30.3977 26.3317 30.3977C27.1385 30.3977 27.8629 30.267 28.505 30.0057C29.147 29.7386 29.6555 29.3693 30.0305 28.8977C30.4055 28.4205 30.593 27.8636 30.593 27.2273C30.593 26.6477 30.4311 26.1761 30.1072 25.8125C29.7834 25.4489 29.3572 25.1534 28.8288 24.9261C28.3004 24.6989 27.7294 24.5 27.1158 24.3295L24.968 23.7159C23.6044 23.3239 22.5249 22.7642 21.7294 22.0369C20.9339 21.3097 20.5362 20.358 20.5362 19.1818C20.5362 18.2045 20.8004 17.3523 21.3288 16.625C21.8629 15.892 22.5788 15.3239 23.4766 14.9205C24.38 14.5114 25.3885 14.3068 26.5021 14.3068C27.6271 14.3068 28.6271 14.5085 29.5021 14.9119C30.3771 15.3097 31.0703 15.8551 31.5817 16.5483C32.0987 17.2415 32.3714 18.0284 32.3999 18.9091H30.3544Z" fill="black"/>
</svg>
